<mxfile host="app.diagrams.net" agent="Mozilla/5.0 (Windows NT 10.0; Win64; x64; rv:139.0) Gecko/20100101 Firefox/139.0" version="27.1.5">
  <diagram name="Página-1" id="UzewOoZcIGuiK5oKRbgG">
    <mxGraphModel grid="1" page="0" gridSize="10" guides="1" tooltips="1" connect="1" arrows="1" fold="1" pageScale="1" pageWidth="1100" pageHeight="850" math="0" shadow="0">
      <root>
        <mxCell id="0" />
        <mxCell id="1" parent="0" />
        <mxCell id="CBZQoFwQddTuggSyXcMr-43" value="Tauri Back-End" style="shape=folder;fontStyle=1;tabWidth=110;tabHeight=30;tabPosition=left;html=1;boundedLbl=1;labelInHeader=1;container=0;collapsible=0;whiteSpace=wrap;fillColor=#f8cecc;strokeColor=#b85450;" vertex="1" parent="1">
          <mxGeometry x="-220" y="-630" width="1090" height="670" as="geometry" />
        </mxCell>
        <mxCell id="CBZQoFwQddTuggSyXcMr-63" value="BD" style="shape=folder;fontStyle=1;tabWidth=110;tabHeight=30;tabPosition=left;html=1;boundedLbl=1;labelInHeader=1;container=1;collapsible=0;whiteSpace=wrap;fillColor=#e1d5e7;strokeColor=#9673a6;" vertex="1" parent="1">
          <mxGeometry x="109.97" y="79.75" width="200" height="140" as="geometry" />
        </mxCell>
        <mxCell id="CBZQoFwQddTuggSyXcMr-64" value="" style="html=1;strokeColor=none;resizeWidth=1;resizeHeight=1;fillColor=none;part=1;connectable=0;allowArrows=0;deletable=0;whiteSpace=wrap;" vertex="1" parent="CBZQoFwQddTuggSyXcMr-63">
          <mxGeometry width="200" height="98" relative="1" as="geometry">
            <mxPoint y="30" as="offset" />
          </mxGeometry>
        </mxCell>
        <mxCell id="CBZQoFwQddTuggSyXcMr-61" value="Sistema Local" style="shape=folder;fontStyle=1;tabWidth=110;tabHeight=30;tabPosition=left;html=1;boundedLbl=1;labelInHeader=1;container=1;collapsible=0;whiteSpace=wrap;fillColor=#e1d5e7;strokeColor=#9673a6;" vertex="1" parent="1">
          <mxGeometry x="-167.53" y="79.75" width="200" height="140" as="geometry" />
        </mxCell>
        <mxCell id="CBZQoFwQddTuggSyXcMr-62" value="" style="html=1;strokeColor=none;resizeWidth=1;resizeHeight=1;fillColor=none;part=1;connectable=0;allowArrows=0;deletable=0;whiteSpace=wrap;" vertex="1" parent="CBZQoFwQddTuggSyXcMr-61">
          <mxGeometry width="200" height="98" relative="1" as="geometry">
            <mxPoint y="30" as="offset" />
          </mxGeometry>
        </mxCell>
        <mxCell id="CBZQoFwQddTuggSyXcMr-47" value="Servidor Email" style="shape=folder;fontStyle=1;tabWidth=110;tabHeight=30;tabPosition=left;html=1;boundedLbl=1;labelInHeader=1;container=1;collapsible=0;whiteSpace=wrap;fillColor=#e1d5e7;strokeColor=#9673a6;" vertex="1" parent="1">
          <mxGeometry x="920" y="-400" width="200" height="145" as="geometry" />
        </mxCell>
        <mxCell id="CBZQoFwQddTuggSyXcMr-48" value="" style="html=1;strokeColor=none;resizeWidth=1;resizeHeight=1;fillColor=none;part=1;connectable=0;allowArrows=0;deletable=0;whiteSpace=wrap;" vertex="1" parent="CBZQoFwQddTuggSyXcMr-47">
          <mxGeometry width="200" height="118.14814814814814" relative="1" as="geometry">
            <mxPoint y="30" as="offset" />
          </mxGeometry>
        </mxCell>
        <mxCell id="CBZQoFwQddTuggSyXcMr-35" value="&lt;div&gt;«External»&lt;b&gt;&lt;br&gt;&lt;/b&gt;&lt;/div&gt;&lt;div&gt;&lt;b&gt;SMTP Server&lt;/b&gt;&lt;/div&gt;" style="html=1;dropTarget=0;whiteSpace=wrap;fillColor=#dae8fc;strokeColor=#6c8ebf;" vertex="1" parent="CBZQoFwQddTuggSyXcMr-47">
          <mxGeometry x="30" y="55.00333333333333" width="140" height="67.66666666666667" as="geometry" />
        </mxCell>
        <mxCell id="CBZQoFwQddTuggSyXcMr-36" value="" style="shape=module;jettyWidth=8;jettyHeight=4;" vertex="1" parent="CBZQoFwQddTuggSyXcMr-35">
          <mxGeometry x="1" width="20" height="20" relative="1" as="geometry">
            <mxPoint x="-27" y="7" as="offset" />
          </mxGeometry>
        </mxCell>
        <mxCell id="CBZQoFwQddTuggSyXcMr-41" value="Front-End" style="shape=folder;fontStyle=1;tabWidth=110;tabHeight=30;tabPosition=left;html=1;boundedLbl=1;labelInHeader=1;container=0;collapsible=0;whiteSpace=wrap;fillColor=#dae8fc;strokeColor=#6c8ebf;" vertex="1" parent="1">
          <mxGeometry x="-760" y="-630" width="400" height="510" as="geometry" />
        </mxCell>
        <mxCell id="CBZQoFwQddTuggSyXcMr-11" value="«External»&lt;br&gt;&lt;b&gt;MySQL&lt;/b&gt;" style="html=1;dropTarget=0;whiteSpace=wrap;fillColor=#dae8fc;strokeColor=#6c8ebf;" vertex="1" parent="1">
          <mxGeometry x="139.97" y="129.75" width="140" height="70" as="geometry" />
        </mxCell>
        <mxCell id="CBZQoFwQddTuggSyXcMr-12" value="" style="shape=module;jettyWidth=8;jettyHeight=4;" vertex="1" parent="CBZQoFwQddTuggSyXcMr-11">
          <mxGeometry x="1" width="20" height="20" relative="1" as="geometry">
            <mxPoint x="-27" y="7" as="offset" />
          </mxGeometry>
        </mxCell>
        <mxCell id="CBZQoFwQddTuggSyXcMr-32" value="&lt;div&gt;«External»&lt;/div&gt;&lt;b&gt;File System&lt;/b&gt;" style="html=1;dropTarget=0;whiteSpace=wrap;fillColor=#dae8fc;strokeColor=#6c8ebf;" vertex="1" parent="1">
          <mxGeometry x="-137.53" y="129.75" width="140" height="70" as="geometry" />
        </mxCell>
        <mxCell id="CBZQoFwQddTuggSyXcMr-33" value="" style="shape=module;jettyWidth=8;jettyHeight=4;" vertex="1" parent="CBZQoFwQddTuggSyXcMr-32">
          <mxGeometry x="1" width="20" height="20" relative="1" as="geometry">
            <mxPoint x="-27" y="7" as="offset" />
          </mxGeometry>
        </mxCell>
        <mxCell id="CBZQoFwQddTuggSyXcMr-44" value="" style="html=1;strokeColor=none;resizeWidth=1;resizeHeight=1;fillColor=none;part=1;connectable=0;allowArrows=0;deletable=0;whiteSpace=wrap;" vertex="1" parent="1">
          <mxGeometry x="-1290" y="-860" width="70" height="320" as="geometry">
            <mxPoint y="30" as="offset" />
          </mxGeometry>
        </mxCell>
        <mxCell id="CBZQoFwQddTuggSyXcMr-75" value="&lt;b&gt;React&lt;/b&gt;" style="html=1;dropTarget=0;whiteSpace=wrap;align=center;verticalAlign=top;fillColor=#fff2cc;strokeColor=#d6b656;" vertex="1" parent="1">
          <mxGeometry x="-733.3299999999999" y="-386.25" width="346.67" height="210" as="geometry" />
        </mxCell>
        <mxCell id="CBZQoFwQddTuggSyXcMr-76" value="" style="shape=module;jettyWidth=8;jettyHeight=4;" vertex="1" parent="CBZQoFwQddTuggSyXcMr-75">
          <mxGeometry x="1" width="20" height="20" relative="1" as="geometry">
            <mxPoint x="-27" y="7" as="offset" />
          </mxGeometry>
        </mxCell>
        <mxCell id="CBZQoFwQddTuggSyXcMr-42" value="" style="html=1;strokeColor=none;resizeWidth=1;resizeHeight=1;fillColor=none;part=1;connectable=0;allowArrows=0;deletable=0;whiteSpace=wrap;" vertex="1" parent="1">
          <mxGeometry x="-530" y="-100" width="233.33" height="60" as="geometry">
            <mxPoint x="-210" y="30" as="offset" />
          </mxGeometry>
        </mxCell>
        <mxCell id="CBZQoFwQddTuggSyXcMr-77" style="edgeStyle=orthogonalEdgeStyle;rounded=0;orthogonalLoop=1;jettySize=auto;html=1;exitX=0.5;exitY=1;exitDx=0;exitDy=0;entryX=0.5;entryY=0;entryDx=0;entryDy=0;" edge="1" parent="1" source="CBZQoFwQddTuggSyXcMr-20" target="CBZQoFwQddTuggSyXcMr-75">
          <mxGeometry relative="1" as="geometry" />
        </mxCell>
        <mxCell id="CBZQoFwQddTuggSyXcMr-20" value="«Component»&lt;br&gt;&lt;b&gt;Webview2&lt;/b&gt;" style="html=1;dropTarget=0;whiteSpace=wrap;fillColor=#ffe6cc;strokeColor=#d79b00;" vertex="1" parent="1">
          <mxGeometry x="-637.7744444444445" y="-543.75" width="155.55555555555557" height="70" as="geometry" />
        </mxCell>
        <mxCell id="CBZQoFwQddTuggSyXcMr-21" value="" style="shape=module;jettyWidth=8;jettyHeight=4;" vertex="1" parent="CBZQoFwQddTuggSyXcMr-20">
          <mxGeometry x="1" width="20" height="20" relative="1" as="geometry">
            <mxPoint x="-27" y="7" as="offset" />
          </mxGeometry>
        </mxCell>
        <mxCell id="CBZQoFwQddTuggSyXcMr-18" value="«Component»&lt;br&gt;&lt;b&gt;CSS&lt;/b&gt;" style="html=1;dropTarget=0;whiteSpace=wrap;fillColor=#ffe6cc;strokeColor=#d79b00;" vertex="1" parent="1">
          <mxGeometry x="-706.66" y="-348.25" width="140" height="70" as="geometry" />
        </mxCell>
        <mxCell id="CBZQoFwQddTuggSyXcMr-19" value="" style="shape=module;jettyWidth=8;jettyHeight=4;" vertex="1" parent="CBZQoFwQddTuggSyXcMr-18">
          <mxGeometry x="1" width="20" height="20" relative="1" as="geometry">
            <mxPoint x="-27" y="7" as="offset" />
          </mxGeometry>
        </mxCell>
        <mxCell id="CBZQoFwQddTuggSyXcMr-16" value="«Component»&lt;br&gt;&lt;b&gt;HTML&lt;/b&gt;" style="html=1;dropTarget=0;whiteSpace=wrap;fillColor=#ffe6cc;strokeColor=#d79b00;" vertex="1" parent="1">
          <mxGeometry x="-550" y="-316.25" width="140" height="70" as="geometry" />
        </mxCell>
        <mxCell id="CBZQoFwQddTuggSyXcMr-17" value="" style="shape=module;jettyWidth=8;jettyHeight=4;" vertex="1" parent="CBZQoFwQddTuggSyXcMr-16">
          <mxGeometry x="1" width="20" height="20" relative="1" as="geometry">
            <mxPoint x="-27" y="7" as="offset" />
          </mxGeometry>
        </mxCell>
        <mxCell id="CBZQoFwQddTuggSyXcMr-13" value="&lt;div&gt;«Component»&lt;b&gt;&lt;br&gt;&lt;/b&gt;&lt;/div&gt;&lt;div&gt;&lt;b&gt;JavaScript&lt;/b&gt;&lt;/div&gt;" style="html=1;dropTarget=0;whiteSpace=wrap;fillColor=#ffe6cc;strokeColor=#d79b00;" vertex="1" parent="1">
          <mxGeometry x="-704.99" y="-270" width="136.66" height="70" as="geometry" />
        </mxCell>
        <mxCell id="CBZQoFwQddTuggSyXcMr-14" value="" style="shape=module;jettyWidth=8;jettyHeight=4;" vertex="1" parent="CBZQoFwQddTuggSyXcMr-13">
          <mxGeometry x="1" width="20" height="20" relative="1" as="geometry">
            <mxPoint x="-27" y="7" as="offset" />
          </mxGeometry>
        </mxCell>
        <mxCell id="CBZQoFwQddTuggSyXcMr-78" value="" style="group" connectable="0" vertex="1" parent="1">
          <mxGeometry x="-215" y="-246.25" width="345" height="140" as="geometry" />
        </mxCell>
        <mxCell id="CBZQoFwQddTuggSyXcMr-51" value="&lt;b&gt;Tauri Plugins&lt;/b&gt;" style="html=1;dropTarget=0;whiteSpace=wrap;align=center;verticalAlign=top;fillColor=#fff2cc;strokeColor=#d6b656;" vertex="1" parent="CBZQoFwQddTuggSyXcMr-78">
          <mxGeometry x="20" width="325" height="140" as="geometry" />
        </mxCell>
        <mxCell id="CBZQoFwQddTuggSyXcMr-52" value="" style="shape=module;jettyWidth=8;jettyHeight=4;" vertex="1" parent="CBZQoFwQddTuggSyXcMr-51">
          <mxGeometry x="1" width="20" height="20" relative="1" as="geometry">
            <mxPoint x="-27" y="7" as="offset" />
          </mxGeometry>
        </mxCell>
        <mxCell id="V2R640O_Gy9G1JuSlTU2-1" value="&lt;div&gt;«Component»&lt;b&gt;&lt;br&gt;&lt;/b&gt;&lt;/div&gt;&lt;div&gt;&lt;b&gt;SQLx&lt;/b&gt;&lt;/div&gt;" style="html=1;dropTarget=0;whiteSpace=wrap;fillColor=#ffe6cc;strokeColor=#d79b00;" vertex="1" parent="CBZQoFwQddTuggSyXcMr-78">
          <mxGeometry x="200" y="40" width="125" height="70" as="geometry" />
        </mxCell>
        <mxCell id="V2R640O_Gy9G1JuSlTU2-2" value="" style="shape=module;jettyWidth=8;jettyHeight=4;" vertex="1" parent="V2R640O_Gy9G1JuSlTU2-1">
          <mxGeometry x="1" width="20" height="20" relative="1" as="geometry">
            <mxPoint x="-27" y="7" as="offset" />
          </mxGeometry>
        </mxCell>
        <mxCell id="CBZQoFwQddTuggSyXcMr-45" value="&lt;div&gt;«Component»&lt;/div&gt;&lt;div&gt;&lt;b&gt;Tauri File System&lt;/b&gt;&lt;/div&gt;" style="html=1;dropTarget=0;whiteSpace=wrap;fillColor=#ffe6cc;strokeColor=#d79b00;" vertex="1" parent="CBZQoFwQddTuggSyXcMr-78">
          <mxGeometry x="40" y="40" width="125" height="70" as="geometry" />
        </mxCell>
        <mxCell id="CBZQoFwQddTuggSyXcMr-46" value="" style="shape=module;jettyWidth=8;jettyHeight=4;" vertex="1" parent="CBZQoFwQddTuggSyXcMr-45">
          <mxGeometry x="1" width="20" height="20" relative="1" as="geometry">
            <mxPoint x="-27" y="7" as="offset" />
          </mxGeometry>
        </mxCell>
        <mxCell id="CBZQoFwQddTuggSyXcMr-79" value="" style="group" connectable="0" vertex="1" parent="1">
          <mxGeometry x="220" y="-567.5" width="390" height="580" as="geometry" />
        </mxCell>
        <mxCell id="CBZQoFwQddTuggSyXcMr-49" value="&lt;b&gt;Controladores&lt;/b&gt;" style="html=1;dropTarget=0;whiteSpace=wrap;align=center;verticalAlign=top;fillColor=#fff2cc;strokeColor=#d6b656;" vertex="1" parent="CBZQoFwQddTuggSyXcMr-79">
          <mxGeometry width="390" height="580" as="geometry" />
        </mxCell>
        <mxCell id="CBZQoFwQddTuggSyXcMr-50" value="" style="shape=module;jettyWidth=8;jettyHeight=4;" vertex="1" parent="CBZQoFwQddTuggSyXcMr-49">
          <mxGeometry x="1" width="20" height="20" relative="1" as="geometry">
            <mxPoint x="-27" y="7" as="offset" />
          </mxGeometry>
        </mxCell>
        <mxCell id="CBZQoFwQddTuggSyXcMr-37" value="&lt;div&gt;«Component»&lt;/div&gt;&lt;div&gt;&lt;b&gt;Notif Handler&lt;/b&gt;&lt;/div&gt;" style="html=1;dropTarget=0;whiteSpace=wrap;fillColor=#ffe6cc;strokeColor=#d79b00;" vertex="1" parent="CBZQoFwQddTuggSyXcMr-79">
          <mxGeometry x="220" y="220" width="140" height="70" as="geometry" />
        </mxCell>
        <mxCell id="CBZQoFwQddTuggSyXcMr-38" value="" style="shape=module;jettyWidth=8;jettyHeight=4;" vertex="1" parent="CBZQoFwQddTuggSyXcMr-37">
          <mxGeometry x="1" width="20" height="20" relative="1" as="geometry">
            <mxPoint x="-27" y="7" as="offset" />
          </mxGeometry>
        </mxCell>
        <mxCell id="CBZQoFwQddTuggSyXcMr-53" value="&lt;div&gt;«Component»&lt;/div&gt;&lt;div&gt;&lt;b&gt;Admin Informe&lt;/b&gt;&lt;/div&gt;" style="html=1;dropTarget=0;whiteSpace=wrap;fillColor=#ffe6cc;strokeColor=#d79b00;" vertex="1" parent="CBZQoFwQddTuggSyXcMr-79">
          <mxGeometry x="40" y="130" width="140" height="70" as="geometry" />
        </mxCell>
        <mxCell id="CBZQoFwQddTuggSyXcMr-54" value="" style="shape=module;jettyWidth=8;jettyHeight=4;" vertex="1" parent="CBZQoFwQddTuggSyXcMr-53">
          <mxGeometry x="1" width="20" height="20" relative="1" as="geometry">
            <mxPoint x="-27" y="7" as="offset" />
          </mxGeometry>
        </mxCell>
        <mxCell id="CBZQoFwQddTuggSyXcMr-55" value="&lt;div&gt;«Component»&lt;/div&gt;&lt;div&gt;&lt;b&gt;Admin Cotizacion&lt;/b&gt;&lt;/div&gt;" style="html=1;dropTarget=0;whiteSpace=wrap;fillColor=#ffe6cc;strokeColor=#d79b00;" vertex="1" parent="CBZQoFwQddTuggSyXcMr-79">
          <mxGeometry x="220" y="130" width="140" height="70" as="geometry" />
        </mxCell>
        <mxCell id="CBZQoFwQddTuggSyXcMr-56" value="" style="shape=module;jettyWidth=8;jettyHeight=4;" vertex="1" parent="CBZQoFwQddTuggSyXcMr-55">
          <mxGeometry x="1" width="20" height="20" relative="1" as="geometry">
            <mxPoint x="-27" y="7" as="offset" />
          </mxGeometry>
        </mxCell>
        <mxCell id="CBZQoFwQddTuggSyXcMr-57" value="&lt;div&gt;«Component»&lt;/div&gt;&lt;div&gt;&lt;b&gt;Equipo_Ordenes&lt;/b&gt;&lt;/div&gt;" style="html=1;dropTarget=0;whiteSpace=wrap;fillColor=#ffe6cc;strokeColor=#d79b00;" vertex="1" parent="CBZQoFwQddTuggSyXcMr-79">
          <mxGeometry x="40" y="397.5" width="140" height="70" as="geometry" />
        </mxCell>
        <mxCell id="CBZQoFwQddTuggSyXcMr-58" value="" style="shape=module;jettyWidth=8;jettyHeight=4;" vertex="1" parent="CBZQoFwQddTuggSyXcMr-57">
          <mxGeometry x="1" width="20" height="20" relative="1" as="geometry">
            <mxPoint x="-27" y="7" as="offset" />
          </mxGeometry>
        </mxCell>
        <mxCell id="CBZQoFwQddTuggSyXcMr-65" value="&lt;div&gt;«Component»&lt;/div&gt;&lt;div&gt;&lt;b&gt;Login&lt;/b&gt;&lt;/div&gt;" style="html=1;dropTarget=0;whiteSpace=wrap;fillColor=#ffe6cc;strokeColor=#d79b00;" vertex="1" parent="CBZQoFwQddTuggSyXcMr-79">
          <mxGeometry x="220" y="397.5" width="140" height="70" as="geometry" />
        </mxCell>
        <mxCell id="CBZQoFwQddTuggSyXcMr-66" value="" style="shape=module;jettyWidth=8;jettyHeight=4;" vertex="1" parent="CBZQoFwQddTuggSyXcMr-65">
          <mxGeometry x="1" width="20" height="20" relative="1" as="geometry">
            <mxPoint x="-27" y="7" as="offset" />
          </mxGeometry>
        </mxCell>
        <mxCell id="CBZQoFwQddTuggSyXcMr-67" value="&lt;div&gt;«Component»&lt;/div&gt;&lt;div&gt;&lt;b&gt;Sesión Expirada &lt;br&gt;&lt;/b&gt;&lt;/div&gt;" style="html=1;dropTarget=0;whiteSpace=wrap;fillColor=#ffe6cc;strokeColor=#d79b00;" vertex="1" parent="CBZQoFwQddTuggSyXcMr-79">
          <mxGeometry x="220" y="310" width="140" height="70" as="geometry" />
        </mxCell>
        <mxCell id="CBZQoFwQddTuggSyXcMr-68" value="" style="shape=module;jettyWidth=8;jettyHeight=4;" vertex="1" parent="CBZQoFwQddTuggSyXcMr-67">
          <mxGeometry x="1" width="20" height="20" relative="1" as="geometry">
            <mxPoint x="-27" y="7" as="offset" />
          </mxGeometry>
        </mxCell>
        <mxCell id="CBZQoFwQddTuggSyXcMr-69" value="&lt;div&gt;«Component»&lt;/div&gt;&lt;div&gt;&lt;b&gt;Admin Usuarios&lt;/b&gt;&lt;/div&gt;" style="html=1;dropTarget=0;whiteSpace=wrap;fillColor=#ffe6cc;strokeColor=#d79b00;" vertex="1" parent="CBZQoFwQddTuggSyXcMr-79">
          <mxGeometry x="40" y="40" width="140" height="70" as="geometry" />
        </mxCell>
        <mxCell id="CBZQoFwQddTuggSyXcMr-70" value="" style="shape=module;jettyWidth=8;jettyHeight=4;" vertex="1" parent="CBZQoFwQddTuggSyXcMr-69">
          <mxGeometry x="1" width="20" height="20" relative="1" as="geometry">
            <mxPoint x="-27" y="7" as="offset" />
          </mxGeometry>
        </mxCell>
        <mxCell id="CBZQoFwQddTuggSyXcMr-71" value="&lt;div&gt;«Component»&lt;/div&gt;&lt;div&gt;&lt;b&gt;Admin Clientes&lt;/b&gt;&lt;/div&gt;" style="html=1;dropTarget=0;whiteSpace=wrap;fillColor=#ffe6cc;strokeColor=#d79b00;" vertex="1" parent="CBZQoFwQddTuggSyXcMr-79">
          <mxGeometry x="220" y="40" width="140" height="70" as="geometry" />
        </mxCell>
        <mxCell id="CBZQoFwQddTuggSyXcMr-72" value="" style="shape=module;jettyWidth=8;jettyHeight=4;" vertex="1" parent="CBZQoFwQddTuggSyXcMr-71">
          <mxGeometry x="1" width="20" height="20" relative="1" as="geometry">
            <mxPoint x="-27" y="7" as="offset" />
          </mxGeometry>
        </mxCell>
        <mxCell id="zGpyvWc9eIMFYn7wQ6Df-47" value="&lt;div&gt;«Component»&lt;/div&gt;&lt;div&gt;&lt;b&gt;Admin Ordenes&lt;/b&gt;&lt;/div&gt;" style="html=1;dropTarget=0;whiteSpace=wrap;fillColor=#ffe6cc;strokeColor=#d79b00;" vertex="1" parent="CBZQoFwQddTuggSyXcMr-79">
          <mxGeometry x="40" y="220" width="140" height="70" as="geometry" />
        </mxCell>
        <mxCell id="zGpyvWc9eIMFYn7wQ6Df-48" value="" style="shape=module;jettyWidth=8;jettyHeight=4;" vertex="1" parent="zGpyvWc9eIMFYn7wQ6Df-47">
          <mxGeometry x="1" width="20" height="20" relative="1" as="geometry">
            <mxPoint x="-27" y="7" as="offset" />
          </mxGeometry>
        </mxCell>
        <mxCell id="zGpyvWc9eIMFYn7wQ6Df-49" value="&lt;div&gt;«Component»&lt;/div&gt;&lt;div&gt;&lt;b&gt;Activador Rol&lt;/b&gt;&lt;/div&gt;" style="html=1;dropTarget=0;whiteSpace=wrap;fillColor=#ffe6cc;strokeColor=#d79b00;" vertex="1" parent="CBZQoFwQddTuggSyXcMr-79">
          <mxGeometry x="125" y="480" width="140" height="70" as="geometry" />
        </mxCell>
        <mxCell id="zGpyvWc9eIMFYn7wQ6Df-50" value="" style="shape=module;jettyWidth=8;jettyHeight=4;" vertex="1" parent="zGpyvWc9eIMFYn7wQ6Df-49">
          <mxGeometry x="1" width="20" height="20" relative="1" as="geometry">
            <mxPoint x="-27" y="7" as="offset" />
          </mxGeometry>
        </mxCell>
        <mxCell id="jiCTt4VWOTnPeH5ZW4Bo-3" value="&lt;div&gt;«Component»&lt;/div&gt;&lt;div&gt;&lt;b&gt;Admin Equipos&lt;/b&gt;&lt;/div&gt;" style="html=1;dropTarget=0;whiteSpace=wrap;fillColor=#ffe6cc;strokeColor=#d79b00;" vertex="1" parent="CBZQoFwQddTuggSyXcMr-79">
          <mxGeometry x="40" y="307.5" width="140" height="70" as="geometry" />
        </mxCell>
        <mxCell id="jiCTt4VWOTnPeH5ZW4Bo-4" value="" style="shape=module;jettyWidth=8;jettyHeight=4;" vertex="1" parent="jiCTt4VWOTnPeH5ZW4Bo-3">
          <mxGeometry x="1" width="20" height="20" relative="1" as="geometry">
            <mxPoint x="-27" y="7" as="offset" />
          </mxGeometry>
        </mxCell>
        <mxCell id="CBZQoFwQddTuggSyXcMr-81" style="edgeStyle=orthogonalEdgeStyle;rounded=0;orthogonalLoop=1;jettySize=auto;html=1;exitX=0.5;exitY=1;exitDx=0;exitDy=0;entryX=0;entryY=0.5;entryDx=0;entryDy=0;" edge="1" parent="1" source="V2R640O_Gy9G1JuSlTU2-1" target="CBZQoFwQddTuggSyXcMr-11">
          <mxGeometry relative="1" as="geometry">
            <Array as="points">
              <mxPoint x="48" y="-60" />
              <mxPoint x="80" y="-60" />
              <mxPoint x="80" y="165" />
            </Array>
          </mxGeometry>
        </mxCell>
        <mxCell id="CBZQoFwQddTuggSyXcMr-83" value="Consultas" style="edgeLabel;html=1;align=center;verticalAlign=middle;resizable=0;points=[];" connectable="0" vertex="1" parent="CBZQoFwQddTuggSyXcMr-81">
          <mxGeometry x="-0.0815" relative="1" as="geometry">
            <mxPoint y="48" as="offset" />
          </mxGeometry>
        </mxCell>
        <mxCell id="CBZQoFwQddTuggSyXcMr-84" style="edgeStyle=orthogonalEdgeStyle;rounded=0;orthogonalLoop=1;jettySize=auto;html=1;entryX=0;entryY=0.5;entryDx=0;entryDy=0;exitX=0.5;exitY=1;exitDx=0;exitDy=0;" edge="1" parent="1" target="CBZQoFwQddTuggSyXcMr-32">
          <mxGeometry relative="1" as="geometry">
            <mxPoint x="-122.53" y="-136.25" as="sourcePoint" />
            <mxPoint x="-157.53" y="105" as="targetPoint" />
            <Array as="points">
              <mxPoint x="-122" y="-58" />
              <mxPoint x="-200" y="-58" />
              <mxPoint x="-200" y="165" />
            </Array>
          </mxGeometry>
        </mxCell>
        <mxCell id="CBZQoFwQddTuggSyXcMr-85" value="Modificación" style="edgeLabel;html=1;align=center;verticalAlign=middle;resizable=0;points=[];" connectable="0" vertex="1" parent="CBZQoFwQddTuggSyXcMr-84">
          <mxGeometry x="0.5652" relative="1" as="geometry">
            <mxPoint x="-20" y="-57" as="offset" />
          </mxGeometry>
        </mxCell>
        <mxCell id="CBZQoFwQddTuggSyXcMr-89" value="" style="rounded=0;orthogonalLoop=1;jettySize=auto;html=1;endArrow=halfCircle;endFill=0;endSize=10;strokeWidth=2;sketch=0;exitX=1;exitY=0.5;exitDx=0;exitDy=0;startSize=10;curved=0;" edge="1" parent="1">
          <mxGeometry relative="1" as="geometry">
            <mxPoint x="-482.2188888888886" y="-509.75" as="sourcePoint" />
            <mxPoint x="-320" y="-510" as="targetPoint" />
          </mxGeometry>
        </mxCell>
        <mxCell id="CBZQoFwQddTuggSyXcMr-90" value="" style="rounded=0;orthogonalLoop=1;jettySize=auto;html=1;endArrow=oval;endFill=0;sketch=0;sourcePerimeterSpacing=0;targetPerimeterSpacing=0;endSize=17;exitX=0;exitY=0.5;exitDx=0;exitDy=0;startSize=10;strokeWidth=2;curved=0;" edge="1" parent="1" source="CBZQoFwQddTuggSyXcMr-59">
          <mxGeometry relative="1" as="geometry">
            <mxPoint x="-320" y="-462" as="sourcePoint" />
            <mxPoint x="-320" y="-510" as="targetPoint" />
          </mxGeometry>
        </mxCell>
        <mxCell id="CBZQoFwQddTuggSyXcMr-91" value="" style="ellipse;whiteSpace=wrap;html=1;align=center;aspect=fixed;fillColor=none;strokeColor=none;resizable=0;perimeter=centerPerimeter;rotatable=0;allowArrows=0;points=[];outlineConnect=1;" vertex="1" parent="1">
          <mxGeometry x="-305" y="-473.75" width="10" height="10" as="geometry" />
        </mxCell>
        <mxCell id="CBZQoFwQddTuggSyXcMr-97" value="" style="rounded=0;orthogonalLoop=1;jettySize=auto;html=1;endArrow=halfCircle;endFill=0;endSize=10;strokeWidth=2;sketch=0;exitX=0;exitY=0.75;exitDx=0;exitDy=0;startSize=10;curved=0;" edge="1" parent="1">
          <mxGeometry relative="1" as="geometry">
            <mxPoint x="220" y="-187.25" as="sourcePoint" />
            <mxPoint x="180" y="-187" as="targetPoint" />
          </mxGeometry>
        </mxCell>
        <mxCell id="CBZQoFwQddTuggSyXcMr-98" value="" style="rounded=0;orthogonalLoop=1;jettySize=auto;html=1;endArrow=oval;endFill=0;sketch=0;sourcePerimeterSpacing=0;targetPerimeterSpacing=0;endSize=17;startSize=10;strokeWidth=2;curved=0;exitX=0.996;exitY=0.421;exitDx=0;exitDy=0;exitPerimeter=0;" edge="1" parent="1" source="CBZQoFwQddTuggSyXcMr-51">
          <mxGeometry relative="1" as="geometry">
            <mxPoint x="129" y="-190" as="sourcePoint" />
            <mxPoint x="180" y="-187" as="targetPoint" />
          </mxGeometry>
        </mxCell>
        <mxCell id="CBZQoFwQddTuggSyXcMr-99" value="" style="rounded=0;orthogonalLoop=1;jettySize=auto;html=1;endArrow=oval;endFill=0;sketch=0;sourcePerimeterSpacing=0;targetPerimeterSpacing=0;endSize=17;startSize=10;strokeWidth=2;curved=0;exitX=1;exitY=0.5;exitDx=0;exitDy=0;" edge="1" parent="1" source="CBZQoFwQddTuggSyXcMr-59">
          <mxGeometry relative="1" as="geometry">
            <mxPoint x="180" y="-220" as="sourcePoint" />
            <mxPoint x="180" y="-437" as="targetPoint" />
          </mxGeometry>
        </mxCell>
        <mxCell id="CBZQoFwQddTuggSyXcMr-101" style="edgeStyle=orthogonalEdgeStyle;rounded=0;orthogonalLoop=1;jettySize=auto;html=1;exitX=0.5;exitY=1;exitDx=0;exitDy=0;entryX=0.5;entryY=0;entryDx=0;entryDy=0;endArrow=none;startFill=0;" edge="1" parent="1" source="CBZQoFwQddTuggSyXcMr-59" target="CBZQoFwQddTuggSyXcMr-51">
          <mxGeometry relative="1" as="geometry" />
        </mxCell>
        <mxCell id="CBZQoFwQddTuggSyXcMr-59" value="&lt;b&gt;Tauri Core&lt;/b&gt;" style="html=1;dropTarget=0;whiteSpace=wrap;align=center;verticalAlign=top;fillColor=#fff2cc;strokeColor=#d6b656;" vertex="1" parent="1">
          <mxGeometry x="-190" y="-567.5" width="330" height="260" as="geometry" />
        </mxCell>
        <mxCell id="CBZQoFwQddTuggSyXcMr-60" value="" style="shape=module;jettyWidth=8;jettyHeight=4;" vertex="1" parent="CBZQoFwQddTuggSyXcMr-59">
          <mxGeometry x="1" width="20" height="20" relative="1" as="geometry">
            <mxPoint x="-27" y="7" as="offset" />
          </mxGeometry>
        </mxCell>
        <mxCell id="CBZQoFwQddTuggSyXcMr-26" value="&lt;div&gt;«Component»&lt;/div&gt;&lt;div&gt;&lt;b&gt;TAO&lt;/b&gt;&lt;/div&gt;" style="html=1;dropTarget=0;whiteSpace=wrap;fillColor=#ffe6cc;strokeColor=#d79b00;" vertex="1" parent="1">
          <mxGeometry x="-170" y="-512.5" width="130" height="60" as="geometry" />
        </mxCell>
        <mxCell id="CBZQoFwQddTuggSyXcMr-27" value="" style="shape=module;jettyWidth=8;jettyHeight=4;" vertex="1" parent="CBZQoFwQddTuggSyXcMr-26">
          <mxGeometry x="1" width="20" height="20" relative="1" as="geometry">
            <mxPoint x="-27" y="7" as="offset" />
          </mxGeometry>
        </mxCell>
        <mxCell id="CBZQoFwQddTuggSyXcMr-28" value="&lt;div&gt;«Component»&lt;/div&gt;&lt;div&gt;&lt;b&gt;WRY&lt;/b&gt;&lt;/div&gt;" style="html=1;dropTarget=0;whiteSpace=wrap;fillColor=#ffe6cc;strokeColor=#d79b00;" vertex="1" parent="1">
          <mxGeometry x="-170" y="-429.5" width="130" height="60" as="geometry" />
        </mxCell>
        <mxCell id="CBZQoFwQddTuggSyXcMr-29" value="" style="shape=module;jettyWidth=8;jettyHeight=4;" vertex="1" parent="CBZQoFwQddTuggSyXcMr-28">
          <mxGeometry x="1" width="20" height="20" relative="1" as="geometry">
            <mxPoint x="-27" y="7" as="offset" />
          </mxGeometry>
        </mxCell>
        <mxCell id="CBZQoFwQddTuggSyXcMr-24" value="&lt;div&gt;«Component»&lt;/div&gt;&lt;div&gt;&lt;b&gt;Tauri API&lt;/b&gt;&lt;/div&gt;" style="html=1;dropTarget=0;whiteSpace=wrap;fillColor=#ffe6cc;strokeColor=#d79b00;" vertex="1" parent="1">
          <mxGeometry x="-20" y="-429.5" width="140" height="70" as="geometry" />
        </mxCell>
        <mxCell id="CBZQoFwQddTuggSyXcMr-25" value="" style="shape=module;jettyWidth=8;jettyHeight=4;" vertex="1" parent="CBZQoFwQddTuggSyXcMr-24">
          <mxGeometry x="1" width="20" height="20" relative="1" as="geometry">
            <mxPoint x="-27" y="7" as="offset" />
          </mxGeometry>
        </mxCell>
        <mxCell id="CBZQoFwQddTuggSyXcMr-22" value="&lt;div&gt;«Component»&lt;/div&gt;&lt;div&gt;&lt;b&gt;IPC Handler&lt;/b&gt;&lt;/div&gt;" style="html=1;dropTarget=0;whiteSpace=wrap;fillColor=#ffe6cc;strokeColor=#d79b00;" vertex="1" parent="1">
          <mxGeometry x="-20" y="-522.5" width="140" height="70" as="geometry" />
        </mxCell>
        <mxCell id="CBZQoFwQddTuggSyXcMr-23" value="" style="shape=module;jettyWidth=8;jettyHeight=4;" vertex="1" parent="CBZQoFwQddTuggSyXcMr-22">
          <mxGeometry x="1" width="20" height="20" relative="1" as="geometry">
            <mxPoint x="-27" y="7" as="offset" />
          </mxGeometry>
        </mxCell>
        <mxCell id="CBZQoFwQddTuggSyXcMr-100" value="" style="rounded=0;orthogonalLoop=1;jettySize=auto;html=1;endArrow=halfCircle;endFill=0;endSize=10;strokeWidth=2;sketch=0;exitX=0;exitY=0.25;exitDx=0;exitDy=0;startSize=10;curved=0;" edge="1" parent="1">
          <mxGeometry relative="1" as="geometry">
            <mxPoint x="220" y="-440.75" as="sourcePoint" />
            <mxPoint x="180" y="-437" as="targetPoint" />
          </mxGeometry>
        </mxCell>
        <mxCell id="KZJxnn2bOp0YimCazCPP-26" value="" style="group" connectable="0" vertex="1" parent="1">
          <mxGeometry x="660" y="-373.25" width="210" height="120" as="geometry" />
        </mxCell>
        <mxCell id="KZJxnn2bOp0YimCazCPP-27" value="&lt;b&gt;API Externas&lt;/b&gt;" style="html=1;dropTarget=0;whiteSpace=wrap;align=center;verticalAlign=top;fillColor=#fff2cc;strokeColor=#d6b656;" vertex="1" parent="KZJxnn2bOp0YimCazCPP-26">
          <mxGeometry x="-20" y="-2.75" width="210" height="120" as="geometry" />
        </mxCell>
        <mxCell id="KZJxnn2bOp0YimCazCPP-28" value="" style="shape=module;jettyWidth=8;jettyHeight=4;" vertex="1" parent="KZJxnn2bOp0YimCazCPP-27">
          <mxGeometry x="1" width="20" height="20" relative="1" as="geometry">
            <mxPoint x="-27" y="7" as="offset" />
          </mxGeometry>
        </mxCell>
        <mxCell id="KZJxnn2bOp0YimCazCPP-47" value="&lt;div&gt;«Component»&lt;/div&gt;&lt;div&gt;&lt;b&gt;API Resend&lt;/b&gt;&lt;/div&gt;" style="html=1;dropTarget=0;whiteSpace=wrap;fillColor=#ffe6cc;strokeColor=#d79b00;" vertex="1" parent="KZJxnn2bOp0YimCazCPP-26">
          <mxGeometry x="10" y="25.35" width="150" height="71.9" as="geometry" />
        </mxCell>
        <mxCell id="KZJxnn2bOp0YimCazCPP-48" value="" style="shape=module;jettyWidth=8;jettyHeight=4;" vertex="1" parent="KZJxnn2bOp0YimCazCPP-47">
          <mxGeometry x="1" width="20" height="20" relative="1" as="geometry">
            <mxPoint x="-27" y="7" as="offset" />
          </mxGeometry>
        </mxCell>
        <mxCell id="KZJxnn2bOp0YimCazCPP-54" style="edgeStyle=orthogonalEdgeStyle;rounded=0;orthogonalLoop=1;jettySize=auto;html=1;exitX=1;exitY=0.5;exitDx=0;exitDy=0;entryX=0;entryY=0.5;entryDx=0;entryDy=0;" edge="1" parent="1" source="KZJxnn2bOp0YimCazCPP-47" target="CBZQoFwQddTuggSyXcMr-35">
          <mxGeometry relative="1" as="geometry" />
        </mxCell>
        <mxCell id="CBZQoFwQddTuggSyXcMr-86" style="edgeStyle=orthogonalEdgeStyle;rounded=0;orthogonalLoop=1;jettySize=auto;html=1;exitX=1;exitY=0.5;exitDx=0;exitDy=0;entryX=0;entryY=0.5;entryDx=0;entryDy=0;" edge="1" parent="1" source="CBZQoFwQddTuggSyXcMr-37" target="KZJxnn2bOp0YimCazCPP-47">
          <mxGeometry relative="1" as="geometry">
            <mxPoint x="660" y="-320" as="targetPoint" />
            <Array as="points">
              <mxPoint x="625" y="-312" />
            </Array>
          </mxGeometry>
        </mxCell>
      </root>
    </mxGraphModel>
  </diagram>
</mxfile>
